HIERARCHY
ROOT root
{
	OFFSET 0.000000 0.000000 0.000000
	CHANNELS 6 Xposition Yposition Zposition Zrotation Yrotation Xrotation
	JOINT lhip
	{
		OFFSET 0.058581 -0.082280 -0.017664
		CHANNELS 3 Zrotation Yrotation Xrotation
		JOINT lknee
		{
			OFFSET 0.043451 -0.386469 0.008037
			CHANNELS 3 Zrotation Yrotation Xrotation
			JOINT lankle
			{
				OFFSET -0.014790 -0.426874 -0.037428
				CHANNELS 3 Zrotation Yrotation Xrotation
				JOINT ltoe
				{
					OFFSET 0.041054 -0.060286 0.122042
					CHANNELS 3 Zrotation Yrotation Xrotation
					End Site
					{
						OFFSET 0.000000 0.000000 0.000000
					}
				}
			}
		}
	}
	JOINT rhip
	{
		OFFSET -0.060310 -0.090513 -0.013543
		CHANNELS 3 Zrotation Yrotation Xrotation
		JOINT rknee
		{
			OFFSET -0.043257 -0.383688 -0.004843
			CHANNELS 3 Zrotation Yrotation Xrotation
			JOINT rankle
			{
				OFFSET 0.019056 -0.420046 -0.034562
				CHANNELS 3 Zrotation Yrotation Xrotation
				JOINT rtoe
				{
					OFFSET -0.034840 -0.062106 0.130323
					CHANNELS 3 Zrotation Yrotation Xrotation
					End Site
					{
						OFFSET 0.000000 0.000000 0.000000
					}
				}
			}
		}
	}
	JOINT lowerback
	{
		OFFSET 0.004439 0.124404 -0.038385
		CHANNELS 3 Zrotation Yrotation Xrotation
		JOINT upperback
		{
			OFFSET 0.004488 0.137956 0.026820
			CHANNELS 3 Zrotation Yrotation Xrotation
			JOINT chest
			{
				OFFSET -0.002265 0.056032 0.002855
				CHANNELS 3 Zrotation Yrotation Xrotation
				JOINT lowerneck
				{
					OFFSET -0.013390 0.211636 -0.033468
					CHANNELS 3 Zrotation Yrotation Xrotation
					JOINT upperneck
					{
						OFFSET 0.010113 0.088937 0.050410
						CHANNELS 3 Zrotation Yrotation Xrotation
						End Site
						{
							OFFSET 0.000000 0.000000 0.000000
						}
					}
				}
				JOINT lclavicle
				{
					OFFSET 0.071702 0.114000 -0.018898
					CHANNELS 3 Zrotation Yrotation Xrotation
					JOINT lshoulder
					{
						OFFSET 0.122921 0.045205 -0.019046
						CHANNELS 3 Zrotation Yrotation Xrotation
						JOINT lelbow
						{
							OFFSET 0.255332 -0.015649 -0.022946
							CHANNELS 3 Zrotation Yrotation Xrotation
							JOINT lwrist
							{
								OFFSET 0.265709 0.012698 -0.007375
								CHANNELS 3 Zrotation Yrotation Xrotation
								End Site
								{
									OFFSET 0.000000 0.000000 0.000000
								}
							}
						}
					}
				}
				JOINT rclavicle
				{
					OFFSET -0.082954 0.112472 -0.023707
					CHANNELS 3 Zrotation Yrotation Xrotation
					JOINT rshoulder
					{
						OFFSET -0.113228 0.046853 -0.008472
						CHANNELS 3 Zrotation Yrotation Xrotation
						JOINT relbow
						{
							OFFSET -0.260127 -0.014369 -0.031269
							CHANNELS 3 Zrotation Yrotation Xrotation
							JOINT rwrist
							{
								OFFSET -0.269108 0.006794 -0.006027
								CHANNELS 3 Zrotation Yrotation Xrotation
								End Site
								{
									OFFSET 0.000000 0.000000 0.000000
								}
							}
						}
					}
				}
			}
		}
	}
}
MOTION
Frames: 13
Frame Time: 0.033333
-1.801579 0.445614 1.031340 123.290208 2.312362 94.540309 5.778850 -1.352661 -8.856581 -2.100832 -2.211047 11.933958 10.743101 20.307404 -26.324274 0.000000 -0.000000 0.000000 1.209694 -5.718702 -12.546723 6.086412 -9.206606 19.465755 -0.477354 -18.510389 -15.995934 0.000000 -0.000000 0.000000 0.494064 1.800402 -3.854045 1.313520 0.140046 -0.468468 -2.594960 0.559337 1.686354 3.326430 -23.101338 -1.718421 3.695731 -26.139970 8.556276 -27.041727 7.517410 9.732495 -42.049213 -7.489766 -2.016847 24.632867 -30.932818 -24.343715 20.888993 -5.224763 -15.428632 27.175651 -3.795158 4.187164 42.346234 -2.019042 -4.834296 -17.247929 20.647271 -19.512268 -11.281195 10.084653 -14.189243 
-1.798544 0.438964 1.030707 118.171651 1.718857 94.830875 5.258640 0.011007 -7.821551 -1.653525 1.016928 10.879112 11.077334 20.315920 -26.322681 0.000000 -0.000000 0.000000 0.908393 -5.557064 -13.922039 6.021155 -6.225351 20.870022 0.300643 -15.265642 -16.149029 0.000000 -0.000000 0.000000 -0.167879 2.308764 -5.987241 1.815118 0.338021 1.528399 -2.849057 0.965951 0.576803 3.230496 -20.378978 -2.131792 2.111864 -26.858776 9.639299 -28.055123 7.343407 9.396940 -42.999305 -7.042512 -1.089889 23.909544 -31.094573 -22.592710 18.735628 -6.307276 -14.075230 28.978063 -3.944546 5.686819 43.831223 -1.365321 -5.064733 -19.027814 20.045174 -21.359103 -11.295380 9.574110 -17.308727 
-1.795633 0.431827 1.031930 113.235138 1.079075 94.510187 4.215338 0.621410 -5.558062 -1.132677 3.204021 8.883105 11.557032 22.025788 -25.712982 0.000000 -0.000000 0.000000 0.325343 -3.750236 -15.878905 6.943664 -3.082242 23.924914 0.242311 -14.794169 -17.057131 0.000000 -0.000000 0.000000 0.155925 1.559174 -6.552166 1.327116 1.180782 1.665515 -3.447196 1.112207 0.026722 3.152777 -18.347267 -1.566174 0.980982 -25.425907 10.022997 -28.872295 7.831318 9.273247 -43.674772 -6.168557 -0.257998 22.694135 -32.100038 -20.517783 17.419408 -6.332714 -14.569804 30.256688 -2.831205 6.241886 46.457623 -0.949222 -4.287943 -19.222881 17.298986 -22.316925 -13.711327 8.819698 -18.588122 
-1.791889 0.425548 1.033468 108.214398 0.759223 93.541268 3.662119 1.114124 -2.284547 -0.911991 6.034195 6.642397 11.549349 23.387745 -25.302406 0.000000 -0.000000 0.000000 0.380834 -0.558023 -15.805470 6.857273 -1.968232 25.147819 -0.907881 -13.818596 -17.598284 0.000000 -0.000000 0.000000 0.916327 0.663890 -5.855843 0.778333 1.853817 1.323836 -3.731011 1.557817 -0.445125 2.589871 -16.560250 -1.151856 0.685411 -23.405998 10.231372 -29.956573 7.472299 9.222291 -45.640325 -5.509785 0.471538 22.648612 -31.607803 -19.801564 16.419441 -7.153639 -14.248071 30.909210 -1.245561 7.863218 49.801526 -0.268921 -3.023480 -19.201858 14.377174 -22.661604 -15.723600 8.253354 -18.864356 
-1.787195 0.420051 1.034686 103.608634 0.508462 92.507248 3.435832 1.450744 0.796028 -1.036696 9.066564 4.977795 11.180532 24.374522 -24.984547 0.000000 -0.000000 0.000000 0.675858 2.424034 -13.768912 6.257706 -1.675501 23.343833 -2.154085 -12.908539 -17.218972 0.000000 -0.000000 0.000000 1.931672 -0.177829 -5.102643 0.203071 1.938675 1.240703 -3.989876 1.964908 -0.815570 1.755934 -14.649825 -1.116674 0.682104 -21.260505 10.710695 -30.957386 6.553581 9.258429 -47.994113 -5.003261 0.959902 22.182049 -30.637351 -19.546624 15.394628 -8.076962 -13.362552 31.186093 0.307289 9.667734 53.616401 0.452235 -1.372640 -19.484957 12.143483 -22.472040 -16.289752 8.198760 -17.676806 
-1.782124 0.414821 1.035830 99.617903 0.414249 91.624621 3.357564 1.807319 2.484711 -0.768833 11.725950 5.582396 10.832487 25.190902 -25.306718 0.000000 -0.000000 0.000000 1.159228 3.944079 -11.649941 6.163413 -0.178349 21.524971 -2.718330 -11.873396 -16.404657 0.000000 -0.000000 0.000000 3.069800 -0.926625 -4.773154 -0.077691 1.538139 1.552934 -4.235986 1.970707 -1.064045 0.731463 -12.787167 -1.405355 0.289789 -18.716459 11.672242 -31.879063 5.470046 9.209456 -50.364943 -4.719768 1.607159 20.928215 -29.697922 -18.327852 14.687449 -8.376948 -13.053704 31.343494 1.229607 10.853572 57.357694 0.698126 0.639885 -20.429534 11.483477 -22.814568 -16.001472 8.243510 -16.396573 
-1.778852 0.408841 1.037309 96.173145 0.679556 91.207631 3.780994 2.162375 2.241437 -0.180955 13.945444 8.606098 10.537068 25.633807 -26.343494 0.000000 -0.000000 0.000000 1.887458 4.478010 -10.856895 6.459765 1.743609 21.025680 -2.836002 -10.748645 -15.968831 0.000000 -0.000000 0.000000 4.369343 -1.686281 -4.519924 0.002467 0.882379 1.475988 -4.399632 1.548607 -1.190057 -0.270110 -10.724435 -2.078734 -0.474223 -15.903682 12.965480 -32.758777 4.070931 9.239399 -52.705603 -4.480709 2.683864 19.747557 -28.928395 -16.110564 13.961551 -8.836464 -13.026728 31.321818 1.533230 11.294561 60.498040 0.562058 2.201393 -21.191195 11.982887 -23.442806 -15.101672 8.277723 -17.186923 
-1.776026 0.402892 1.039298 92.629233 1.145157 91.093958 4.557111 2.530323 1.446479 0.265910 15.750812 12.223757 10.259251 25.875216 -27.440676 0.000000 -0.000000 0.000000 2.892866 4.982392 -10.394801 6.598470 3.723634 20.488866 -3.069727 -9.915961 -15.726693 0.000000 -0.000000 0.000000 5.706680 -2.261275 -4.315004 0.314334 0.373949 0.921542 -4.354079 1.121449 -1.167964 -1.284518 -8.734571 -2.733240 -1.315841 -13.109420 14.295067 -33.343297 2.848351 9.142995 -55.067703 -4.328815 3.916119 18.513642 -29.125672 -12.226045 12.553848 -9.654414 -11.988550 30.906354 1.155212 10.898231 62.903482 -0.256840 2.858279 -21.430508 13.370040 -22.932168 -12.633832 8.620934 -19.380483 
-1.773060 0.397662 1.041635 89.151269 1.590336 90.870711 5.337025 2.771549 0.615485 0.726438 16.120722 16.450428 10.225887 25.973581 -28.045994 0.000000 -0.000000 0.000000 3.816295 5.550471 -9.355532 6.647923 5.720087 19.254961 -3.306867 -9.124278 -15.120155 0.000000 -0.000000 0.000000 6.912557 -2.766824 -3.670432 0.707977 -0.019893 -0.055391 -4.179099 0.731671 -0.988564 -2.238241 -6.991433 -3.364435 -2.009278 -10.251902 15.526244 -33.581979 2.061032 8.912244 -56.885646 -4.446106 5.362223 16.605947 -30.947488 -5.815407 10.631811 -10.689359 -10.904006 30.253597 0.529993 10.440191 64.489488 -1.247727 3.201824 -21.267510 14.988270 -20.957613 -9.590784 9.238720 -21.481178 
-1.769715 0.393400 1.044071 85.835133 1.714245 90.354794 5.827040 2.426275 0.126488 0.791682 15.439208 20.693665 10.090518 25.484778 -28.043995 0.000000 -0.000000 0.000000 4.182702 6.112634 -7.670399 6.536856 7.061820 17.534375 -3.113634 -7.637474 -14.254867 0.000000 -0.000000 0.000000 7.521992 -3.119859 -2.348839 1.140322 -0.409321 -0.965459 -3.875348 0.389024 -1.100677 -2.677448 -5.186207 -4.051292 -2.679670 -8.066753 16.630921 -33.632704 1.239071 8.995815 -57.683315 -4.369226 7.000257 14.632220 -34.846288 0.935108 6.572247 -12.937182 -8.888897 29.909871 0.285237 10.199292 64.903898 -2.204671 3.224442 -20.815064 16.166708 -18.699291 -6.423973 10.577896 -22.630010 
-1.766572 0.389474 1.046219 82.940620 1.796432 89.761129 6.391248 1.967615 -0.907794 -0.122362 12.735468 25.377522 8.841801 23.106921 -28.357600 0.000000 -0.000000 0.000000 4.525426 6.600882 -5.945724 6.376986 8.416991 15.860692 -2.641590 -6.498830 -13.597849 0.000000 -0.000000 0.000000 7.867512 -3.520930 -0.545198 1.608921 -0.771264 -1.903425 -3.591895 0.129253 -1.239771 -2.764260 -3.400260 -5.154557 -3.230793 -6.491460 17.710173 -33.596759 0.548279 8.602855 -56.619289 -4.090968 8.962613 11.200793 -40.306036 9.555105 1.751829 -16.106110 -6.096621 29.643378 0.332540 9.650147 64.086072 -3.412227 3.247667 -19.532180 17.488918 -17.255661 -3.125729 11.608120 -26.735105 
-1.761500 0.385708 1.048377 79.854845 1.650688 88.754607 6.479529 1.373256 -1.225523 -2.451677 8.297401 28.849367 7.661281 19.574481 -28.621290 0.000000 -0.000000 0.000000 4.702409 6.921281 -3.876743 6.211322 10.178733 14.493942 -2.078596 -5.548279 -13.174897 0.000000 -0.000000 0.000000 7.790921 -3.625029 1.428889 1.962543 -0.976655 -2.234179 -3.261343 0.078302 -1.471863 -2.647338 -2.132128 -5.993316 -3.408389 -5.239486 18.304618 -33.638831 -0.356727 8.057526 -54.665412 -3.675943 10.757671 7.677671 -46.157763 17.581745 -1.511567 -19.056235 -2.189778 29.636421 1.225938 9.324448 62.431837 -4.680937 3.533324 -18.091208 18.474643 -15.632430 -0.952410 12.329635 -28.894151 
-1.755865 0.382640 1.050319 76.854757 1.468607 88.094746 6.243053 0.195968 -2.053358 -5.109625 4.318567 31.615124 6.766913 16.430908 -28.695012 0.000000 -0.000000 0.000000 4.588639 6.786787 -2.273914 6.150022 11.942919 13.202040 -1.342382 -4.807095 -12.837616 0.000000 -0.000000 0.000000 7.774925 -3.284415 2.494303 2.170899 -1.119940 -1.927967 -3.071260 0.188847 -1.489800 -2.573850 -1.436020 -6.839124 -3.243220 -4.338574 18.298744 -33.527984 -1.368578 7.621267 -53.160066 -3.733118 12.286701 5.235464 -51.152719 22.437086 -1.992244 -21.051203 0.633373 29.740287 2.253883 9.195024 60.342064 -5.472334 4.378906 -16.595599 19.099874 -12.717538 -0.183695 12.617968 -26.229168 
